<?xml version="1.0"?>
<svg width="640" height="480" xmlns="http://www.w3.org/2000/svg">
  <defs>
    <linearGradient id="shuffle_gradient">
      <stop offset="0" stop-color="#000000"/>
      <stop offset="1" stop-color="#FFCC00"/>
    </linearGradient>
  </defs>
  <g>
    <title>Symbol</title>
    <!-- Paths from Method Draw - http://github.com/duopixel/Method-Draw/ -->
    <path id="shuffle" stroke-width="0" stroke="#000" fill="url(#shuffle_gradient)" d="m293.168304,66.830093c2.784729,2.128838 5.55246,4.891251 8.398712,8.011932c0.408661,-0.476234 0.795868,-0.940132 1.204559,-1.428833c4.111206,-4.891212 8.775421,-10.432144 13.994568,-15.792484c0.831848,-0.870087 1.702484,-1.600525 2.545013,-2.422413c-3.917938,-3.728992 -8.240845,-7.306129 -13.456635,-10.381863c-8.06601,-4.817909 -18.6008,-8.167622 -30.311981,-8.099659l-50.758774,0l0,23.51268l50.765945,0c7.062073,0.110863 11.535675,1.960205 17.618591,6.600639l0,0zm109.984161,19.240685l0,14.716385c-7.42038,-0.014458 -19.719025,-0.014458 -23.203522,-0.014458c-10.302155,-0.193184 -17.066376,-2.857132 -24.09967,-7.48867c-3.043365,-2.028534 -5.957428,-4.565491 -8.832367,-7.392029c-2.158112,2.454102 -4.330414,4.987549 -6.542206,7.617661c-2.688049,3.186638 -5.459442,6.461166 -8.34848,9.681847c-0.713593,0.791473 -1.519836,1.60788 -2.276367,2.408043c11.710938,9.970444 27.956696,18.563957 49.9198,18.669518l23.382813,0l0,14.716553l28.293549,-13.21463l28.340607,-13.242821l-28.340607,-13.228851l-28.293549,-13.228546l0,0zm-47.303192,-18.345375c7.033295,-4.644119 13.797516,-7.295593 24.09967,-7.490669c3.484497,0 15.783142,0 23.203522,-0.009285l0,14.716728l28.293549,-13.21801l28.340607,-13.228741l-28.340607,-13.23938l-28.293549,-13.219755l0,14.702196l-23.386108,0c-26.501373,0.129086 -44.772614,12.591255 -56.670135,24.935417c-12.123016,12.471321 -20.912476,25.626732 -29.927917,32.498093c-6.093781,4.625862 -10.556519,6.496956 -17.618591,6.600708l-50.765945,0l0,23.512695l50.765945,0c11.711182,0.067673 22.245972,-3.276611 30.31543,-8.10511c8.144287,-4.790771 14.263367,-10.768974 19.751251,-16.787865c10.793304,-12.116699 19.751587,-24.69014 30.23288,-31.667023l0,0z"/>
    <path id="left_note" stroke-width="0" stroke="#000" fill="#000000" d="m129.222244,461.210785c-17.029236,-3.808624 -33.354851,-19.411285 -30.127075,-38.082733c0.248276,-23.298096 19.865112,-39.735199 37.201675,-52.344177c22.396301,-15.466461 53.270355,-20.359802 77.904785,-7.228302c1.476593,-108.828568 0.64296,-217.680084 0.864059,-326.515366c4.30275,1.01017 13.670074,-3.042564 11.504272,4.439011c-0.210007,113.160431 0.483627,226.327484 -0.551132,339.481262c-0.109512,15.352905 -0.317169,31.984406 -11.119553,44.161224c-19.952728,25.12323 -53.266159,41.794556 -85.677032,36.089081z"/>
    <path id="right_note" stroke-width="0" stroke="#000" fill="#FFCC00" d="m373.222229,462.210785c-17.029236,-3.808624 -33.354828,-19.411285 -30.127075,-38.082733c0.248291,-23.298096 19.865112,-39.735199 37.201691,-52.344177c22.396301,-15.466461 53.270355,-20.359802 77.904785,-7.228302c1.476593,-108.828583 0.642975,-217.680084 0.864044,-326.515366c4.302765,1.01017 13.670105,-3.042564 11.504272,4.439011c-0.209991,113.160431 0.483643,226.327484 -0.551117,339.481262c-0.109528,15.352905 -0.317169,31.984406 -11.119537,44.161224c-19.952759,25.12323 -53.266174,41.794556 -85.677063,36.089081z"/>
  </g>
</svg>